ply
format ascii 1.0
comment Created by Blender 2.66 (sub 1) - www.blender.org, source file: 'untitl55555555555555ed.blend'
element vertex 224
property float x
property float y
property float z
property float nx
property float ny
property float nz
property float s
property float t
element face 94
property list uchar uint vertex_indices
end_header
-0.173181 0.870647 19.942837 0.290283 -0.956941 0.000000 0.085116 0.817326
-0.339708 0.820132 19.942837 0.290283 -0.956941 0.000000 0.101671 0.808891
-0.339708 0.820132 18.907249 0.290283 -0.956941 0.000000 0.101671 0.808891
-0.173181 0.870647 18.907249 0.290283 -0.956941 0.000000 0.085116 0.817326
-0.707106 0.707109 19.942837 0.000000 -0.000000 1.000000 0.138311 0.790403
-0.831469 0.555573 19.942837 0.000000 -0.000000 1.000000 0.159096 0.792864
-0.738097 0.493183 19.942837 0.000000 -0.000000 1.000000 0.156526 0.804575
-0.627699 0.627702 19.942837 0.000000 -0.000000 1.000000 0.138075 0.802391
-0.980785 0.195093 19.942837 0.000000 0.000000 1.000000 0.197263 0.809559
-1.000000 0.000002 19.942837 0.000000 0.000000 1.000000 0.213179 0.823153
-0.887702 0.000002 19.942837 0.000000 0.000000 1.000000 0.204536 0.831463
-0.870645 0.173184 19.942837 0.000000 0.000000 1.000000 0.190408 0.819396
-0.923880 -0.382681 19.942837 0.000000 0.000000 1.000000 0.235638 0.858239
-0.831470 -0.555568 19.942837 0.000000 0.000000 1.000000 0.241319 0.878384
-0.738098 -0.493179 19.942837 0.000000 0.000000 1.000000 0.229516 0.880491
-0.820130 -0.339707 19.942837 0.000000 0.000000 1.000000 0.224473 0.862609
-0.555571 -0.831468 19.942837 0.000000 0.000000 1.000000 0.240500 0.920034
-0.382684 -0.923878 19.942837 0.000000 0.000000 1.000000 0.234032 0.939940
-0.339709 -0.820128 19.942837 0.000000 0.000000 1.000000 0.223047 0.935135
-0.493181 -0.738095 19.942837 0.000000 0.000000 1.000000 0.228789 0.917465
-0.000000 -0.999999 19.942837 0.000000 0.000000 1.000000 0.210211 0.974117
0.195090 -0.980784 19.942837 0.000000 0.000000 1.000000 0.193774 0.987074
0.173182 -0.870644 19.942837 0.000000 0.000000 1.000000 0.187310 0.976976
-0.000000 -0.887700 19.942837 0.000000 0.000000 1.000000 0.201902 0.965474
0.555570 -0.831468 19.942837 -0.000000 0.000000 1.000000 0.154981 1.002257
0.707107 -0.707105 19.942837 -0.000000 0.000000 1.000000 0.134115 1.003899
0.627700 -0.627699 19.942837 -0.000000 0.000000 1.000000 0.134350 0.991912
0.493181 -0.738096 19.942837 -0.000000 0.000000 1.000000 0.152873 0.990454
0.923880 -0.382682 19.942837 -0.000000 0.000000 1.000000 0.093424 0.994970
0.980785 -0.195089 19.942837 -0.000000 0.000000 1.000000 0.075163 0.984743
0.870645 -0.173180 19.942837 -0.000000 0.000000 1.000000 0.082018 0.974907
0.820130 -0.339707 19.942837 -0.000000 0.000000 1.000000 0.098229 0.983985
0.980785 0.195092 19.942837 -0.000000 0.000000 1.000000 0.046290 0.954712
0.923880 0.382685 19.942837 -0.000000 0.000000 1.000000 0.036788 0.936063
0.820130 0.339710 19.942837 -0.000000 0.000000 1.000000 0.047953 0.931693
0.870645 0.173184 19.942837 -0.000000 0.000000 1.000000 0.056388 0.948249
0.707107 0.707108 19.942837 -0.000000 -0.000000 1.000000 0.029465 0.895053
0.555570 0.831471 19.942837 -0.000000 -0.000000 1.000000 0.031926 0.874268
0.493181 0.738099 19.942837 -0.000000 -0.000000 1.000000 0.043637 0.876838
0.627700 0.627702 19.942837 -0.000000 -0.000000 1.000000 0.041453 0.895289
0.195090 0.980787 19.942837 0.000000 -0.000000 1.000000 0.048621 0.836101
0.000000 1.000001 19.942837 0.000000 -0.000000 1.000000 0.062215 0.820186
-0.000000 0.887703 19.942837 0.000000 -0.000000 1.000000 0.070525 0.828829
0.173182 0.870647 19.942837 0.000000 -0.000000 1.000000 0.058458 0.842957
-0.382682 0.923882 19.942837 0.000000 -0.000000 1.000000 0.097301 0.797726
-0.555569 0.831472 19.942837 0.000000 -0.000000 1.000000 0.117445 0.792046
-0.493180 0.738099 19.942837 0.000000 -0.000000 1.000000 0.119553 0.803849
-0.339708 0.820132 19.942837 0.000000 -0.000000 1.000000 0.101671 0.808891
-0.923879 0.382686 19.942837 0.000000 0.000000 1.000000 0.179002 0.799332
-0.820129 0.339711 19.942837 0.000000 0.000000 1.000000 0.174197 0.810317
-0.980785 -0.195088 19.942837 0.000000 0.000000 1.000000 0.226136 0.839590
-0.870645 -0.173180 19.942837 0.000000 0.000000 1.000000 0.216038 0.846054
-0.707107 -0.707105 19.942837 0.000000 0.000000 1.000000 0.242961 0.899249
-0.627701 -0.627698 19.942837 0.000000 0.000000 1.000000 0.230973 0.899014
-0.195091 -0.980784 19.942837 0.000000 0.000000 1.000000 0.223805 0.958201
-0.173182 -0.870643 19.942837 0.000000 0.000000 1.000000 0.213968 0.951346
0.382683 -0.923878 19.942837 0.000000 0.000000 1.000000 0.175125 0.996576
0.339709 -0.820128 19.942837 0.000000 0.000000 1.000000 0.170755 0.985411
0.831470 -0.555569 19.942837 -0.000000 0.000000 1.000000 0.113330 1.001438
0.738097 -0.493179 19.942837 -0.000000 0.000000 1.000000 0.115899 0.989727
1.000000 0.000002 19.942837 -0.000000 0.000000 1.000000 0.059248 0.971150
0.887702 0.000002 19.942837 -0.000000 0.000000 1.000000 0.067890 0.962840
0.831470 0.555572 19.942837 -0.000000 0.000000 1.000000 0.031107 0.915919
0.738097 0.493182 19.942837 -0.000000 0.000000 1.000000 0.042910 0.913811
0.382683 0.923881 19.942837 0.000000 -0.000000 1.000000 0.038394 0.854362
0.339709 0.820131 19.942837 0.000000 -0.000000 1.000000 0.049379 0.859167
-0.195089 0.980787 19.942837 0.000000 -0.000000 1.000000 0.078651 0.807228
-0.173181 0.870647 19.942837 0.000000 -0.000000 1.000000 0.085116 0.817326
0.173182 0.870647 18.907249 -0.000000 0.000000 1.000000 0.058458 0.842957
0.000000 0.887703 18.907249 -0.000000 0.000000 1.000000 0.070525 0.828829
-0.173181 0.870647 18.907249 -0.000000 0.000000 1.000000 0.085116 0.817326
-0.339708 0.820132 18.907249 -0.000000 0.000000 1.000000 0.101671 0.808891
0.339709 0.820131 18.907249 0.000000 -0.000000 1.000000 0.049379 0.859167
-0.493180 0.738099 18.907249 0.000000 -0.000000 1.000000 0.119553 0.803849
0.493181 0.738099 18.907249 0.000000 0.000000 1.000000 0.043637 0.876838
-0.627699 0.627702 18.907249 0.000000 -0.000000 1.000000 0.138075 0.802391
0.627700 0.627702 18.907249 0.000000 0.000000 1.000000 0.041453 0.895289
-0.738097 0.493183 18.907249 0.000000 -0.000000 1.000000 0.156526 0.804575
0.738097 0.493182 18.907249 0.000000 0.000000 1.000000 0.042910 0.913811
-0.820129 0.339711 18.907249 0.000000 -0.000000 1.000000 0.174197 0.810317
0.820130 0.339710 18.907249 0.000000 0.000000 1.000000 0.047953 0.931693
-0.870645 0.173184 18.907249 0.000000 -0.000000 1.000000 0.190408 0.819396
0.870645 0.173184 18.907249 0.000000 0.000000 1.000000 0.056388 0.948249
-0.887702 0.000002 18.907249 0.000000 -0.000000 1.000000 0.204536 0.831463
0.887702 0.000002 18.907249 0.000000 0.000000 1.000000 0.067890 0.962840
-0.870645 -0.173180 18.907249 0.000000 0.000000 1.000000 0.216038 0.846054
0.870645 -0.173180 18.907249 0.000000 0.000000 1.000000 0.082018 0.974907
-0.820130 -0.339707 18.907249 0.000000 0.000000 1.000000 0.224473 0.862609
0.820130 -0.339707 18.907249 0.000000 0.000000 1.000000 0.098229 0.983985
-0.738097 -0.493179 18.907249 0.000000 0.000000 1.000000 0.229516 0.880491
0.738097 -0.493179 18.907249 0.000000 0.000000 1.000000 0.115899 0.989727
-0.627700 -0.627698 18.907249 0.000000 0.000000 1.000000 0.230973 0.899014
0.627700 -0.627699 18.907249 0.000000 0.000000 1.000000 0.134350 0.991912
-0.493181 -0.738095 18.907249 0.000000 0.000000 1.000000 0.228789 0.917465
0.493181 -0.738096 18.907249 0.000000 0.000000 1.000000 0.152873 0.990454
-0.339709 -0.820128 18.907249 0.000000 0.000000 1.000000 0.223047 0.935135
0.339709 -0.820128 18.907249 0.000000 0.000000 1.000000 0.170755 0.985411
-0.173182 -0.870643 18.907249 0.000000 0.000000 1.000000 0.213968 0.951346
0.173182 -0.870644 18.907249 0.000000 0.000000 1.000000 0.187310 0.976976
-0.000000 -0.887700 18.907249 0.000000 0.000000 1.000000 0.201902 0.965474
-0.627699 0.627702 19.942837 0.773010 -0.634394 0.000000 0.138075 0.802391
-0.738097 0.493183 19.942837 0.773010 -0.634394 0.000000 0.156526 0.804575
-0.738097 0.493183 18.907249 0.773010 -0.634394 0.000000 0.156526 0.804575
-0.627699 0.627702 18.907249 0.773010 -0.634394 0.000000 0.138075 0.802391
-0.870645 0.173184 19.942837 0.995185 -0.098018 0.000000 0.190408 0.819396
-0.887702 0.000002 19.942837 0.995185 -0.098018 0.000000 0.204536 0.831463
-0.887702 0.000002 18.907249 0.995185 -0.098018 0.000000 0.204536 0.831463
-0.870645 0.173184 18.907249 0.995185 -0.098018 0.000000 0.190408 0.819396
-0.820130 -0.339707 19.942837 0.881922 0.471396 0.000000 0.224473 0.862609
-0.738098 -0.493179 19.942837 0.881922 0.471396 0.000000 0.229516 0.880491
-0.738097 -0.493179 18.907249 0.881922 0.471396 0.000000 0.229516 0.880491
-0.820130 -0.339707 18.907249 0.881922 0.471396 0.000000 0.224473 0.862609
-0.493181 -0.738095 19.942837 0.471397 0.881921 0.000000 0.228789 0.917465
-0.339709 -0.820128 19.942837 0.471397 0.881921 0.000000 0.223047 0.935135
-0.339709 -0.820128 18.907249 0.471397 0.881921 0.000000 0.223047 0.935135
-0.493181 -0.738095 18.907249 0.471397 0.881921 0.000000 0.228789 0.917465
-0.000000 -0.887700 19.942837 -0.098016 0.995185 -0.000000 0.201902 0.965474
0.173182 -0.870644 19.942837 -0.098016 0.995185 -0.000000 0.187310 0.976976
0.173182 -0.870644 18.907249 -0.098016 0.995185 -0.000000 0.187310 0.976976
-0.000000 -0.887700 18.907249 -0.098016 0.995185 -0.000000 0.201902 0.965474
0.493181 -0.738096 19.942837 -0.634393 0.773010 -0.000000 0.152873 0.990454
0.627700 -0.627699 19.942837 -0.634393 0.773010 -0.000000 0.134350 0.991912
0.627700 -0.627699 18.907249 -0.634393 0.773010 -0.000000 0.134350 0.991912
0.493181 -0.738096 18.907249 -0.634393 0.773010 -0.000000 0.152873 0.990454
0.820130 -0.339707 19.942837 -0.956940 0.290285 -0.000000 0.098229 0.983985
0.870645 -0.173180 19.942837 -0.956940 0.290285 -0.000000 0.082018 0.974907
0.870645 -0.173180 18.907249 -0.956940 0.290285 -0.000000 0.082018 0.974907
0.820130 -0.339707 18.907249 -0.956940 0.290285 -0.000000 0.098229 0.983985
0.870645 0.173184 19.942837 -0.956940 -0.290285 -0.000000 0.056388 0.948249
0.820130 0.339710 19.942837 -0.956940 -0.290285 -0.000000 0.047953 0.931693
0.820130 0.339710 18.907249 -0.956940 -0.290285 -0.000000 0.047953 0.931693
0.870645 0.173184 18.907249 -0.956940 -0.290285 -0.000000 0.056388 0.948249
0.627700 0.627702 19.942837 -0.634393 -0.773010 -0.000000 0.041453 0.895289
0.493181 0.738099 19.942837 -0.634393 -0.773010 -0.000000 0.043637 0.876838
0.493181 0.738099 18.907249 -0.634393 -0.773010 -0.000000 0.043637 0.876838
0.627700 0.627702 18.907249 -0.634393 -0.773010 -0.000000 0.041453 0.895289
0.173182 0.870647 19.942837 -0.098017 -0.995185 -0.000000 0.058458 0.842957
-0.000000 0.887703 19.942837 -0.098017 -0.995185 -0.000000 0.070525 0.828829
0.000000 0.887703 18.907249 -0.098017 -0.995185 -0.000000 0.070525 0.828829
0.173182 0.870647 18.907249 -0.098017 -0.995185 -0.000000 0.058458 0.842957
-0.339708 0.820132 19.942837 0.471395 -0.881922 0.000000 0.101671 0.808891
-0.493180 0.738099 19.942837 0.471395 -0.881922 0.000000 0.119553 0.803849
-0.493180 0.738099 18.907249 0.471395 -0.881922 0.000000 0.119553 0.803849
-0.339708 0.820132 18.907249 0.471395 -0.881922 0.000000 0.101671 0.808891
-0.738097 0.493183 19.942837 0.881921 -0.471398 0.000000 0.156526 0.804575
-0.820129 0.339711 19.942837 0.881921 -0.471398 0.000000 0.174197 0.810317
-0.820129 0.339711 18.907249 0.881921 -0.471398 0.000000 0.174197 0.810317
-0.738097 0.493183 18.907249 0.881921 -0.471398 0.000000 0.156526 0.804575
-0.887702 0.000002 19.942837 0.995185 0.098016 0.000000 0.204536 0.831463
-0.870645 -0.173180 19.942837 0.995185 0.098016 0.000000 0.216038 0.846054
-0.870645 -0.173180 18.907249 0.995185 0.098016 0.000000 0.216038 0.846054
-0.887702 0.000002 18.907249 0.995185 0.098016 0.000000 0.204536 0.831463
-0.738098 -0.493179 19.942837 0.773011 0.634393 0.000000 0.229516 0.880491
-0.627701 -0.627698 19.942837 0.773011 0.634393 0.000000 0.230973 0.899014
-0.627700 -0.627698 18.907249 0.773011 0.634393 0.000000 0.230973 0.899014
-0.738097 -0.493179 18.907249 0.773011 0.634393 0.000000 0.229516 0.880491
-0.339709 -0.820128 19.942837 0.290285 0.956940 0.000000 0.223047 0.935135
-0.173182 -0.870643 19.942837 0.290285 0.956940 0.000000 0.213968 0.951346
-0.173182 -0.870643 18.907249 0.290285 0.956940 0.000000 0.213968 0.951346
-0.339709 -0.820128 18.907249 0.290285 0.956940 0.000000 0.223047 0.935135
0.173182 -0.870644 19.942837 -0.290284 0.956941 -0.000000 0.187310 0.976976
0.339709 -0.820128 19.942837 -0.290284 0.956941 -0.000000 0.170755 0.985411
0.339709 -0.820128 18.907249 -0.290284 0.956941 -0.000000 0.170755 0.985411
0.173182 -0.870644 18.907249 -0.290284 0.956941 -0.000000 0.187310 0.976976
0.627700 -0.627699 19.942837 -0.773010 0.634393 -0.000000 0.134350 0.991912
0.738097 -0.493179 19.942837 -0.773010 0.634393 -0.000000 0.115899 0.989727
0.738097 -0.493179 18.907249 -0.773010 0.634393 -0.000000 0.115899 0.989727
0.627700 -0.627699 18.907249 -0.773010 0.634393 -0.000000 0.134350 0.991912
0.870645 -0.173180 19.942837 -0.995185 0.098017 -0.000000 0.082018 0.974907
0.887702 0.000002 19.942837 -0.995185 0.098017 -0.000000 0.067890 0.962840
0.887702 0.000002 18.907249 -0.995185 0.098017 -0.000000 0.067890 0.962840
0.870645 -0.173180 18.907249 -0.995185 0.098017 -0.000000 0.082018 0.974907
0.820130 0.339710 19.942837 -0.881921 -0.471397 -0.000000 0.047953 0.931693
0.738097 0.493182 19.942837 -0.881921 -0.471397 -0.000000 0.042910 0.913811
0.738097 0.493182 18.907249 -0.881921 -0.471397 -0.000000 0.042910 0.913811
0.820130 0.339710 18.907249 -0.881921 -0.471397 -0.000000 0.047953 0.931693
0.493181 0.738099 19.942837 -0.471397 -0.881921 -0.000000 0.043637 0.876838
0.339709 0.820131 19.942837 -0.471397 -0.881921 -0.000000 0.049379 0.859167
0.339709 0.820131 18.907249 -0.471397 -0.881921 -0.000000 0.049379 0.859167
0.493181 0.738099 18.907249 -0.471397 -0.881921 -0.000000 0.043637 0.876838
-0.000000 0.887703 19.942837 0.098016 -0.995185 0.000000 0.070525 0.828829
-0.173181 0.870647 19.942837 0.098016 -0.995185 0.000000 0.085116 0.817326
-0.173181 0.870647 18.907249 0.098016 -0.995185 0.000000 0.085116 0.817326
0.000000 0.887703 18.907249 0.098016 -0.995185 0.000000 0.070525 0.828829
-0.493180 0.738099 19.942837 0.634392 -0.773011 0.000000 0.119553 0.803849
-0.627699 0.627702 19.942837 0.634392 -0.773011 0.000000 0.138075 0.802391
-0.627699 0.627702 18.907249 0.634392 -0.773011 0.000000 0.138075 0.802391
-0.493180 0.738099 18.907249 0.634392 -0.773011 0.000000 0.119553 0.803849
-0.820129 0.339711 19.942837 0.956940 -0.290286 0.000000 0.174197 0.810317
-0.870645 0.173184 19.942837 0.956940 -0.290286 0.000000 0.190408 0.819396
-0.870645 0.173184 18.907249 0.956940 -0.290286 0.000000 0.190408 0.819396
-0.820129 0.339711 18.907249 0.956940 -0.290286 0.000000 0.174197 0.810317
-0.870645 -0.173180 19.942837 0.956941 0.290284 0.000000 0.216038 0.846054
-0.820130 -0.339707 19.942837 0.956941 0.290284 0.000000 0.224473 0.862609
-0.820130 -0.339707 18.907249 0.956941 0.290284 0.000000 0.224473 0.862609
-0.870645 -0.173180 18.907249 0.956941 0.290284 0.000000 0.216038 0.846054
-0.627701 -0.627698 19.942837 0.634394 0.773010 0.000000 0.230973 0.899014
-0.493181 -0.738095 19.942837 0.634394 0.773010 0.000000 0.228789 0.917465
-0.493181 -0.738095 18.907249 0.634394 0.773010 0.000000 0.228789 0.917465
-0.627700 -0.627698 18.907249 0.634394 0.773010 0.000000 0.230973 0.899014
-0.173182 -0.870643 19.942837 0.098017 0.995185 0.000000 0.213968 0.951346
-0.000000 -0.887700 19.942837 0.098017 0.995185 0.000000 0.201902 0.965474
-0.000000 -0.887700 18.907249 0.098017 0.995185 0.000000 0.201902 0.965474
-0.173182 -0.870643 18.907249 0.098017 0.995185 0.000000 0.213968 0.951346
0.339709 -0.820128 19.942837 -0.471397 0.881921 -0.000000 0.170755 0.985411
0.493181 -0.738096 19.942837 -0.471397 0.881921 -0.000000 0.152873 0.990454
0.493181 -0.738096 18.907249 -0.471397 0.881921 -0.000000 0.152873 0.990454
0.339709 -0.820128 18.907249 -0.471397 0.881921 -0.000000 0.170755 0.985411
0.738097 -0.493179 19.942837 -0.881921 0.471397 -0.000000 0.115899 0.989727
0.820130 -0.339707 19.942837 -0.881921 0.471397 -0.000000 0.098229 0.983985
0.820130 -0.339707 18.907249 -0.881921 0.471397 -0.000000 0.098229 0.983985
0.738097 -0.493179 18.907249 -0.881921 0.471397 -0.000000 0.115899 0.989727
0.887702 0.000002 19.942837 -0.995185 -0.098017 -0.000000 0.067890 0.962840
0.870645 0.173184 19.942837 -0.995185 -0.098017 -0.000000 0.056388 0.948249
0.870645 0.173184 18.907249 -0.995185 -0.098017 -0.000000 0.056388 0.948249
0.887702 0.000002 18.907249 -0.995185 -0.098017 -0.000000 0.067890 0.962840
0.738097 0.493182 19.942837 -0.773010 -0.634393 -0.000000 0.042910 0.913811
0.627700 0.627702 19.942837 -0.773010 -0.634393 -0.000000 0.041453 0.895289
0.627700 0.627702 18.907249 -0.773010 -0.634393 -0.000000 0.041453 0.895289
0.738097 0.493182 18.907249 -0.773010 -0.634393 -0.000000 0.042910 0.913811
0.339709 0.820131 19.942837 -0.290285 -0.956940 -0.000000 0.049379 0.859167
0.173182 0.870647 19.942837 -0.290285 -0.956940 -0.000000 0.058458 0.842957
0.173182 0.870647 18.907249 -0.290285 -0.956940 -0.000000 0.058458 0.842957
0.339709 0.820131 18.907249 -0.290285 -0.956940 -0.000000 0.049379 0.859167
4 0 1 2 3
4 4 5 6 7
4 8 9 10 11
4 12 13 14 15
4 16 17 18 19
4 20 21 22 23
4 24 25 26 27
4 28 29 30 31
4 32 33 34 35
4 36 37 38 39
4 40 41 42 43
4 44 45 46 47
4 5 48 49 6
4 9 50 51 10
4 13 52 53 14
4 17 54 55 18
4 21 56 57 22
4 25 58 59 26
4 29 60 61 30
4 33 62 63 34
4 37 64 65 38
4 41 66 67 42
4 45 4 7 46
4 48 8 11 49
4 50 12 15 51
4 52 16 19 53
4 54 20 23 55
4 56 24 27 57
4 58 28 31 59
4 60 32 35 61
4 62 36 39 63
4 64 40 43 65
4 66 44 47 67
3 68 69 70
3 68 70 71
3 68 71 72
3 71 73 72
3 73 74 72
3 73 75 74
3 75 76 74
3 75 77 76
3 77 78 76
3 77 79 78
3 79 80 78
3 79 81 80
3 81 82 80
3 81 83 82
3 83 84 82
3 83 85 84
3 85 86 84
3 85 87 86
3 87 88 86
3 87 89 88
3 89 90 88
3 89 91 90
3 91 92 90
3 91 93 92
3 93 94 92
3 93 95 94
3 95 96 94
3 95 97 96
3 97 98 96
3 97 99 98
4 100 101 102 103
4 104 105 106 107
4 108 109 110 111
4 112 113 114 115
4 116 117 118 119
4 120 121 122 123
4 124 125 126 127
4 128 129 130 131
4 132 133 134 135
4 136 137 138 139
4 140 141 142 143
4 144 145 146 147
4 148 149 150 151
4 152 153 154 155
4 156 157 158 159
4 160 161 162 163
4 164 165 166 167
4 168 169 170 171
4 172 173 174 175
4 176 177 178 179
4 180 181 182 183
4 184 185 186 187
4 188 189 190 191
4 192 193 194 195
4 196 197 198 199
4 200 201 202 203
4 204 205 206 207
4 208 209 210 211
4 212 213 214 215
4 216 217 218 219
4 220 221 222 223
